<svg xmlns="http://www.w3.org/2000/svg" id="Layer_1" data-name="Layer 1" viewBox="0 0 500 500">
  <style>
    path {
      fill: black;
    }
    @media (prefers-color-scheme: dark) {
      path {
        fill: white;
      }
    }
  </style>
  <path d="M55.86,392.86c4.07,2.55,15.27,7.78,23.32,8.63,55.23,5.81,111.21-1.59,165.87-11.36,7.28-1.3,16.78-7.49,12.56-13.57-2.48-3.58-7.84-3.08-12.11-2.22a708.56,708.56,0,0,1-132.16,13.79c-21.48.22-45.16-1.41-60.55-16.4-13.91-13.54-17.3-35.17-13.44-54.2s13.88-36.16,23.74-52.89L107,190.23c2.82-4.79,6.14-10,11.48-11.52,3.36-1,7.14-.34,10.24-2,8.46-4.41.32-19.1-9.17-18.13s-15.78,10-20.76,18.11L51.93,253.38c-12.55,20.52-25.35,41.7-29.27,65.43s5.76,46.59,22.24,64.11c5.15,5.47,6.11,6.81,11,9.94"/>
  <path d="M439.71,292.76c5.36-4.69,18.06-20.41,20.49-26C471,241.82,480.89,220,477.54,193.07s-15.89-52.12-32-74c-5.22-7.11-11-14.12-18.81-18.31-20.36-11-45.53,1-63.28,15.84-5.14,4.3-10.2,8.94-16.41,11.47-5.91,2.4-12.42,2.72-18.79,3q-72,3.66-143.47,13.5c-6,.83-14.11,5.71-10.7,10.77,1.81,2.67,5.68,2.66,8.89,2.36l138.79-13c6.26-.58,14-.47,17.07,5,1.8,3.15,1.6,7.57,4.53,9.71,5.36,3.94,11.07-4.27,13.53-10.44a64.27,64.27,0,0,1,37.45-36.15c7.85-2.82,17.08-3.92,24.18.47,4,2.45,6.82,6.33,9.56,10.12,17.42,24.09,35.48,50.21,36.24,79.93,1,40.14-29.62,73.75-61.11,98.68a509.62,509.62,0,0,1-91.1,57.58c-3.87,1.91-8,4-10.22,7.63s-1.52,9.51,2.5,11.07c2.85,1.11,6-.26,8.73-1.63a635.34,635.34,0,0,0,112.89-72.28"/>
  <path d="M82.52,173.16l.28,0a24.16,24.16,0,0,1,3.3.11,10.56,10.56,0,0,1,3.27,1.12,12.35,12.35,0,0,1,2.89,2.88c2.83,4.12-4.11,8.48-7.12,10.2-1.58.9-5.86.32-7.65.14a12,12,0,0,1-6.29-2.2c-4.49-3.44-5.71-10.74-6.48-16.05-1-6.87-1.33-11.33.25-17.54,3.11-12.2,5.79-26.16,14.34-36A45.32,45.32,0,0,1,94,103.77a53.62,53.62,0,0,1,19-1.93c8.38.62,15.54,4.6,22.8,8.29,6.48,4.72,14.23,7.66,21.48,11.37,5.59,2.86,10.47,3,16.65,2.37,5.07-.51,13.29-2.69,14.93,4a3.49,3.49,0,0,1-.24,2.68,5.93,5.93,0,0,1-1.27,1.23c-1.23,1.07-2.11,2.49-3.29,3.62-6.55,6.25-19.16,4.78-26.92,2.39-13.35-4.1-26.34-12-38-19.5-4.91-3.16-14-2.51-19.07-.28-7.35,3.24-12.36,12.41-15.67,19.43A55.38,55.38,0,0,0,80.7,148,80.36,80.36,0,0,0,79,166.86C79,169.44,79.52,172.75,82.52,173.16Z"/>
  <path d="M137.14,338.49c-1,.92-4,1.24-5.91.59-1.73-.57-2.12-1.88-2.74-3-12.73-22.67,68.29-21.12,79.78-20C241.5,337.61,145.28,326.22,137.14,338.49Z"/>
  <path d="M289,228.77c.29-15.63,25.78-13.34,21.42.38C306.66,235.28,288.74,240.56,289,228.77Z"/>
  <path d="M148,251.36c6.07-.16,4.49,1.24,9.07,4.41,6.94,6.46-1.86,12.13-7.93,12.52C139.84,268,136.16,250.31,148,251.36Z"/>
</svg>